<svg xmlns="http://www.w3.org/2000/svg" viewBox="0 0 32 32"><path fill="rgba(75, 75, 75, 1.00)" d="M9 2h6v1H9zM7 3h3v1H7zm7 0h3v1h-3zM6 4h2v1H6zm9 0h3v1h-3zM5 5h2v1H5zm9 0h2v1h-2zm3 0h2v1h-2zM5 6h1v1H5zm9 0h1v1h-1zm4 0h1v1h-1zM4 7h2v1H4zm10 0h2v1h-2zm3 0h2v1h-2zM4 8h1v1H4zm11 0h3v1h-3zM4 9h2v1H4zm1 1h1v1H5zm6 0h10v1H11zm-6 1h2v1H5zm3 0h4v1H8zm12 0h3v1h-3zM6 12h3v1H6zm16 0h3v1h-3zM6 13h2v1H6zm18 0h2v1h-2zM5 14h2v1H5zm20 0h2v1h-2zM4 15h2v1H4zm22 0h2v1h-2zM3 16h2v1H3zm24 0h1v1h-1zM3 17h1v1H3zm24 0h2v1h-2zM2 18h2v1H2zm26 0h1v1h-1zM2 19h1v1H2zm26 0h2v1h-2zM2 20h1v1H2zm8 0h1v1h-1zm6 0h1v1h-1zm5 0h1v1h-1zm3 0h1v1h-1zm5 0h1v1h-1zM1 21h2v1H1zm9 0h1v1h-1zm6 0h1v1h-1zm5 0h1v1h-1zm3 0h1v1h-1zm5 0h1v1h-1zM1 22h1v1H1zm9 0h15v1H10zm19 0h2v1h-2zM1 23h1v1H1zm9 0h5v1h-5zm10 0h5v1h-5zm10 0h1v1h-1zM1 24h1v1H1zm9 0h4v1h-4zm10 0h3v1h-3zm4 0h1v1h-1zm6 0h1v1h-1zM0 25h2v1H0zm10 0h4v1h-4zm10 0h3v1h-3zm4 0h1v1h-1zm6 0h2v1h-2zM0 26h1v1H0zm10 0h1v1h-1zm14 0h1v1h-1zm7 0h1v1h-1zM0 27h1v1H0zm10 0h1v1h-1zm14 0h2v1h-2zm7 0h1v1h-1zM0 28h1v1H0zm10 0h1v1h-1zm15 0h1v1h-1zm6 0h1v1h-1zM0 29h2v1H0zm10 0h1v1h-1zm15 0h1v1h-1zm5 0h2v1h-2zM1 30h1v1H1zm9 0h2v1h-2zm14 0h2v1h-2zm6 0h1v1h-1zM1 31h30v1H1z"/><path fill="rgba(249, 211, 129, 1.00)" d="M16 5h1v1h-1zm-1 1h3v1h-3zm1 1h1v1h-1z"/><path fill="rgba(250, 250, 250, 1.00)" d="M12 11h8v1h-8zm-3 1h13v1H9zm-1 1h16v1H8zm-1 1h18v1H7zm-1 1h20v1H6zm-1 1h22v1H5zm-1 1h23v1H4zm0 1h24v1H4zm-1 1h25v1H3zm0 1h7v1H3zm8 0h5v1h-5zm6 0h4v1h-4zm5 0h2v1h-2zm3 0h4v1h-4zM3 21h7v1H3zm8 0h5v1h-5zm6 0h4v1h-4zm5 0h2v1h-2zm3 0h4v1h-4zM2 22h8v1H2zm23 0h4v1h-4zM2 23h8v1H2zm23 0h5v1h-5zM2 24h8v1H2zm12 0h1v1h-1zm9 0h1v1h-1zm2 0h5v1h-5zM2 25h8v1H2zm12 0h1v1h-1zm9 0h1v1h-1zm2 0h5v1h-5zM2 26h8v1H2zm12 0h1v1h-1zm9 0h1v1h-1zm2 0h6v1h-6zM2 27h8v1H2zm11 0h2v1h-2zm9 0h2v1h-2zm4 0h5v1h-5zM3 28h7v1H3zm11 0h1v1h-1zm9 0h1v1h-1zm3 0h5v1h-5zm0 1h1v1h-1z"/><path fill="rgba(157, 157, 157, 1.00)" d="M15 23h5v1h-5zm9 5h1v1h-1zm-1 1h2v1h-2zm-11 1h12v1H12z"/><path fill="rgba(212, 212, 212, 1.00)" d="M15 24h5v1h-5zm0 1h5v1h-5zM1 26h1v1H1zm14 0h5v1h-5zM1 27h1v1H1zm14 0h5v1h-5zM1 28h2v1H1zm14 0h5v1h-5zM2 29h8v1H2zm9 0h12v1H11zm16 0h3v1h-3zM2 30h8v1H2zm24 0h4v1h-4z"/><path fill="rgba(88, 174, 238, 1.00)" d="M11 26h3v1h-3zm9 0h3v1h-3zm-9 1h2v1h-2zm9 0h2v1h-2zm-9 1h3v1h-3zm9 0h3v1h-3z"/></svg>